<svg id="Layer_1" data-name="Layer 1" xmlns="http://www.w3.org/2000/svg" viewBox="0 0 121.75 54.75"><defs><style>.cls-1{fill:#128dbe;}</style></defs><title>logo-blueArtboard 1</title><path fill="#128dbe" class="cls-1" d="M79.88,0V16.62l5.68-7.73h5.38L84.5,16.28l7.44,10.66H86.4l-5-7.85L79.81,20.8V27h-4.5V0Z"/><path fill="#128dbe" class="cls-1" d="M107.5,19H95.94a3.88,3.88,0,0,0,2.89,4.45,20,20,0,0,0,4.84.21,12.69,12.69,0,0,0,2.34-.49l.66,3.08c-3.79,1.3-7.45,1.8-11.1-.08a7,7,0,0,1-3.38-3.9A11.38,11.38,0,0,1,92.6,13a8.16,8.16,0,0,1,8.62-4.43,6.74,6.74,0,0,1,5.5,4.12A10.93,10.93,0,0,1,107.5,19Zm-4.12-3.25c-.12-2.73-1.4-4.18-3.57-4.18a3.92,3.92,0,0,0-3.89,4q0,.11,0,.23Z"/><path fill="#128dbe" class="cls-1" d="M44.64,27.29V5.11H37.5V1.21H51.66V5l-2.92.17V27.29Z"/><path fill="#128dbe" class="cls-1" d="M14.64,6a8.28,8.28,0,0,1,8.13,5.32,13.5,13.5,0,0,1,0,11.09,8.27,8.27,0,0,1-8,5.44,8.22,8.22,0,0,1-8.07-5.4,13.74,13.74,0,0,1,.09-11.25A8.35,8.35,0,0,1,14.64,6Zm6.86,11a9.91,9.91,0,0,0-1.39-5.36,6.16,6.16,0,0,0-10.81,0,10.14,10.14,0,0,0,0,10.54,6.16,6.16,0,0,0,10.89,0A9.9,9.9,0,0,0,21.5,16.9Z"/><path fill="#128dbe" class="cls-1" d="M115.59,3.53V8.8h4.23v3.41h-4.08c0,3.31-.08,6.45,0,9.59,0,1.2.81,1.7,2,1.77h1.73v3.32a7.18,7.18,0,0,1-4,.4,4.31,4.31,0,0,1-4-3.62,18.73,18.73,0,0,1-.31-3.13V12.37l-2.42-.14V8.93l2.35-.2v-4Z"/><path fill="#128dbe" class="cls-1" d="M73.3,9.4l-.7,3.25c-3.15-.85-6.22-1.2-8.11,2.07a6.11,6.11,0,0,0,.26,6.82c2,2.88,4.92,2.39,8,1.64l.55,3.2c-3.64,1.8-9.46,1.43-12.24-2.08a10.68,10.68,0,0,1-.17-12C63.58,8.43,69.36,7.61,73.3,9.4Z"/><path fill="#128dbe" class="cls-1" d="M25.19,20.48h2.19c0,.22.12.42.15.64.78,4.84,6.09,5.36,9,3.78a3.49,3.49,0,0,0,2-3.44,3.08,3.08,0,0,0-2.2-2.89c-1.42-.52-2.91-.86-4.36-1.31a30.63,30.63,0,0,1-3.15-1.07c-4.1-1.78-3.7-7.33-.57-9.19a8.83,8.83,0,0,1,8.57-.53A5.72,5.72,0,0,1,40,12.27c-.33,0-.67.06-1,.05s-.68-.05-1-.08C36.92,8.39,34.42,7,30.89,8A3.38,3.38,0,0,0,28.23,11a3,3,0,0,0,2.11,3.27A42.87,42.87,0,0,0,34.5,15.5a22.84,22.84,0,0,1,3.17,1,5.64,5.64,0,0,1,1,9.6,9.91,9.91,0,0,1-10.61.31C26.07,25,25.36,23,25.19,20.48Z"/><path fill="#128dbe" class="cls-1" d="M52.87,8.68h4.34V27.25H53C52.65,26.1,52.5,11.69,52.87,8.68Z"/><path fill="#128dbe" class="cls-1" d="M57.18,4.92H52.87V1.2h4.31Z"/><path fill="#128dbe" class="cls-1" d="M118.77,52.79H108V31.5H118.2v3.39h-5.61v4.87h5.35v3.49h-5.35v6h6.19Z"/><path fill="#128dbe" class="cls-1" d="M36.09,31.4H40.7L36.48,52.66h-4.9L29.07,39.42,26.18,52.67H21.47L17.33,31.5H22.2l2,15.57,3.11-15.63h3.84l2.68,14.77.2.06Z"/><path fill="#128dbe" class="cls-1" d="M95.11,46.14l3.47-14.71h5l1.47,21.26h-4.16l-.81-13.76-3.55,13.4H93.1L89.7,39.22h-.15l-.79,13.46h-4L86.5,31.5h5Z"/><path fill="#128dbe" class="cls-1" d="M83.24,41.43A18.24,18.24,0,0,1,82,48.78a6.92,6.92,0,0,1-8.68,4,6.18,6.18,0,0,1-4-3.64,16.75,16.75,0,0,1,0-13.81,7,7,0,0,1,8.56-4,6.49,6.49,0,0,1,4.29,4.08A15.28,15.28,0,0,1,83.24,41.43ZM75.7,34.59a2.46,2.46,0,0,0-2.2,1.91,18.5,18.5,0,0,0-.06,11.07A2.47,2.47,0,0,0,75.7,49.5a2.59,2.59,0,0,0,2.12-2.29,21.82,21.82,0,0,0,.06-10.27A2.71,2.71,0,0,0,75.7,34.59Z"/><path fill="#128dbe" class="cls-1" d="M1.94,52.68,7.12,31.45h5.65l4.66,21.22H12.94l-1.11-4.75H7.57L6.43,52.69Zm9.46-8.13L10,36H9.69L8,44.59Z"/><path fill="#128dbe" class="cls-1" d="M52.5,43.28H47.16v5.88h6.06v3.51H42.58V31.45H52.82v3.41H47.18v4.87H52.5Z"/><path fill="#128dbe" class="cls-1" d="M54.51,52.26l.64-3.39a26.34,26.34,0,0,0,3,.56,7.43,7.43,0,0,0,2.42-.13,2.34,2.34,0,0,0,1.21-4.06,16,16,0,0,0-2.24-1.67,22.21,22.21,0,0,1-3-2.34,5.77,5.77,0,0,1,2.1-9.52,9.54,9.54,0,0,1,7.6.18l-.64,3.27a12.22,12.22,0,0,0-2.09-.45,7.23,7.23,0,0,0-2.57.22,2.06,2.06,0,0,0-.78,3.54,16,16,0,0,0,2.28,1.61A22.22,22.22,0,0,1,65.15,42a6.13,6.13,0,0,1-1.92,10.36A11.63,11.63,0,0,1,54.51,52.26Z"/></svg>